<svg width="1600" height="900" viewBox="0 0 1600 900" fill="none" xmlns="http://www.w3.org/2000/svg">
  <defs>
    <linearGradient id="bg3" x1="0" y1="0" x2="1600" y2="900" gradientUnits="userSpaceOnUse">
      <stop offset="0" stop-color="#001D3D"/>
      <stop offset="0.6" stop-color="#062B57"/>
      <stop offset="1" stop-color="#001422"/>
    </linearGradient>
    <linearGradient id="acc3" x1="0" y1="0" x2="1" y2="0" gradientUnits="objectBoundingBox">
      <stop offset="0" stop-color="#FF6B00"/>
      <stop offset="1" stop-color="#FF9A4D"/>
    </linearGradient>
  </defs>

  <rect width="1600" height="900" fill="url(#bg3)"/>

  <g opacity="0.6">
    <path d="M-200 260 L680 60 H860 L-20 260 Z" fill="url(#acc3)"/>
    <path d="M900 840 L1720 620 V900 H760 Z" fill="url(#acc3)"/>
  </g>

  <path d="M-120 780 L820 380 L1720 520 L780 900 Z" fill="#0B2A52" opacity="0.9"/>
  <path d="M-80 900 L900 440 L1720 640 L980 900 Z" fill="#001422" opacity="0.85"/>

  <g opacity="0.9">
    <path d="M350 590 C450 485 650 430 880 430 C1120 430 1285 520 1355 615 L1295 625 C1188 535 1035 495 880 495 C705 495 540 540 430 625 Z" fill="#E5E7EB"/>
    <path d="M430 625 L505 545 C585 485 720 465 880 465 C1040 465 1170 510 1245 605 L1198 610 C1135 545 1020 520 880 520 C735 520 615 550 480 625 Z" fill="#F8FAFC"/>
    <circle cx="570" cy="660" r="54" fill="#0B1220"/>
    <circle cx="570" cy="660" r="24" fill="#94A3B8"/>
    <circle cx="1190" cy="660" r="54" fill="#0B1220"/>
    <circle cx="1190" cy="660" r="24" fill="#94A3B8"/>
  </g>

  <g opacity="0.2">
    <path d="M100 120 H1500" stroke="#FFFFFF" stroke-width="2" stroke-dasharray="10 16"/>
    <path d="M100 200 H1500" stroke="#FFFFFF" stroke-width="2" stroke-dasharray="10 16"/>
  </g>
</svg>

