<svg width="1600" height="900" viewBox="0 0 1600 900" fill="none" xmlns="http://www.w3.org/2000/svg">
  <defs>
    <linearGradient id="bg" x1="0" y1="0" x2="1600" y2="900" gradientUnits="userSpaceOnUse">
      <stop offset="0" stop-color="#001D3D"/>
      <stop offset="0.55" stop-color="#0B2A52"/>
      <stop offset="1" stop-color="#00111F"/>
    </linearGradient>
    <linearGradient id="accent" x1="0" y1="0" x2="1" y2="0" gradientUnits="objectBoundingBox">
      <stop offset="0" stop-color="#FF6B00"/>
      <stop offset="1" stop-color="#FF8A33"/>
    </linearGradient>
  </defs>

  <rect width="1600" height="900" fill="url(#bg)"/>

  <path d="M-200 760 L900 380 L1820 520 L720 900 Z" fill="#0E335F" opacity="0.9"/>
  <path d="M-100 850 L1020 420 L1820 600 L700 900 Z" fill="#001D3D" opacity="0.85"/>

  <g opacity="0.55">
    <path d="M0 180 L820 0 H980 L160 180 Z" fill="url(#accent)"/>
    <path d="M1240 900 L1600 740 V900 Z" fill="url(#accent)"/>
  </g>

  <g opacity="0.9">
    <path d="M390 570 C490 480 680 430 890 430 C1110 430 1280 510 1350 600 L1290 610 C1180 520 1040 490 890 490 C740 490 580 535 470 610 Z" fill="#E5E7EB"/>
    <path d="M450 610 L520 530 C600 475 735 455 890 455 C1060 455 1190 505 1260 585 L1210 590 C1145 530 1025 505 890 505 C760 505 630 535 510 605 Z" fill="#F8FAFC"/>
    <circle cx="560" cy="640" r="54" fill="#0B1220"/>
    <circle cx="560" cy="640" r="24" fill="#94A3B8"/>
    <circle cx="1180" cy="640" r="54" fill="#0B1220"/>
    <circle cx="1180" cy="640" r="24" fill="#94A3B8"/>
  </g>

  <g opacity="0.25">
    <path d="M60 120 H1540" stroke="#FFFFFF" stroke-width="2" stroke-dasharray="10 14"/>
    <path d="M60 200 H1540" stroke="#FFFFFF" stroke-width="2" stroke-dasharray="10 14"/>
  </g>
</svg>

